<svg xmlns="http://www.w3.org/2000/svg" width="241" height="173" viewBox="0 0 241 173">
  <g fill="none" fill-rule="evenodd">
    <path fill="#2AC2C5" fill-rule="nonzero"
          d="M20.915 155.239a2.27 2.27 0 0 1-1.397 2.122 11.777 11.777 0 0 1-5.03 1.091c-2.843 0-8.837-.484-8.837-8.027v-18.786H1.399a1.11 1.11 0 0 1-.824-.326 1.119 1.119 0 0 1-.326-.828c.017-.408.217-.787.544-1.03l8.232-8.09a1.53 1.53 0 0 1 1.026-.546c.319.003.623.138.84.372.218.235.33.55.309.87v4.813h6.6a2.467 2.467 0 0 1 1.804.696c.483.468.755 1.113.754 1.786a2.328 2.328 0 0 1-2.36 2.258H11.2v18.314c0 3.586 2.472 3.648 3.93 3.648a32.117 32.117 0 0 0 3.634-.546 2.217 2.217 0 0 1 2.15 2.209zM56.065 142.322c0 9.604-6.18 16.13-15.499 16.13s-15.499-6.501-15.499-16.13c0-9.628 6.118-16.13 15.5-16.13 9.38 0 15.498 6.551 15.498 16.13zm-5.512 0c0-8.028-5.389-11.006-9.987-11.006-4.597 0-9.986 2.978-9.986 11.006s5.327 11.167 9.986 11.167c4.66 0 10.012-3.114 10.012-11.167h-.025zM92.884 142.322c0 9.604-6.18 16.13-15.499 16.13s-15.498-6.501-15.498-16.13c0-9.628 6.117-16.13 15.498-16.13s15.5 6.551 15.5 16.13zm-5.512 0c0-8.028-5.389-11.006-9.987-11.006-4.597 0-9.986 2.978-9.986 11.006s5.327 11.167 9.986 11.167c4.66 0 9.987-3.114 9.987-11.167zM117.591 155.239a2.27 2.27 0 0 1-1.397 2.122 11.777 11.777 0 0 1-5.03 1.091c-2.843 0-8.837-.484-8.837-8.027v-18.786h-4.252a1.11 1.11 0 0 1-.824-.326 1.119 1.119 0 0 1-.325-.828c.017-.408.217-.787.544-1.03l8.231-8.09a1.53 1.53 0 0 1 1.026-.546c.32.003.623.138.84.372.218.235.33.55.31.87v4.813h6.6a2.467 2.467 0 0 1 1.804.696c.482.468.754 1.113.754 1.786a2.328 2.328 0 0 1-2.36 2.258h-6.799v18.314c0 3.586 2.472 3.648 3.93 3.648a32.117 32.117 0 0 0 3.634-.546 2.217 2.217 0 0 1 2.151 2.209zM151.197 138.153v17.011a2.925 2.925 0 0 1-2.472 2.978 2.712 2.712 0 0 1-2.101-.696 2.735 2.735 0 0 1-.89-2.034v-16.65c0-4.617-1.94-7.446-6.662-7.446-4.35 0-7.502 2.792-9.888 5.82v17.991a2.925 2.925 0 0 1-2.472 2.978 2.712 2.712 0 0 1-2.1-.696 2.735 2.735 0 0 1-.89-2.034v-39.457a2.748 2.748 0 0 1 .777-1.966 2.726 2.726 0 0 1 1.941-.825c1.536 0 2.781 1.25 2.781 2.791v15.746c2.472-2.767 5.846-5.497 11.124-5.497 6.921.025 10.852 5.484 10.852 11.986z"/>
    <path stroke="#2AC2C5" stroke-linecap="round" stroke-linejoin="round" stroke-width="2.064"
          d="M165.979 153.043v15.2a2.925 2.925 0 0 1-2.472 2.977 2.725 2.725 0 0 1-2.116-.717 2.747 2.747 0 0 1-.875-2.062v-39.954a2.813 2.813 0 0 1 2.57-2.866 2.725 2.725 0 0 1 2.065.72c.558.519.876 1.247.877 2.01v1.563a13.77 13.77 0 0 1 10.357-4.615c7.33 0 14.659 5.77 14.659 16.13s-7.33 16.13-14.659 16.13a13.744 13.744 0 0 1-10.27-4.541l-.136.025zm0-17.967v12.73a12.884 12.884 0 0 0 9.554 4.542c5.76 0 9.887-3.723 9.887-10.944 0-7.221-4.177-10.944-9.887-10.944a12.896 12.896 0 0 0-9.554 4.542v.074zM204.985 116.464a3.145 3.145 0 0 1-3.139 3.152h-.272a3.158 3.158 0 0 1-3.14-3.152v-.198a3.158 3.158 0 0 1 3.14-3.152h.272a3.145 3.145 0 0 1 3.14 3.152v.198zm-.543 12.16v25.895a2.747 2.747 0 0 1-.878 2.01 2.725 2.725 0 0 1-2.064.72 2.813 2.813 0 0 1-2.57-2.866v-25.958a2.747 2.747 0 0 1 .875-2.062 2.725 2.725 0 0 1 2.115-.717 2.925 2.925 0 0 1 2.522 3.028v-.05zM239.493 152.497a2.483 2.483 0 0 1-1.236 2.121 17.131 17.131 0 0 1-9.887 2.916c-8.652 0-16.167-5.956-16.167-16.13s7.564-16.13 16.167-16.13a17.131 17.131 0 0 1 9.887 2.916 2.483 2.483 0 0 1 1.236 2.121 2.478 2.478 0 0 1-2.299 2.482 2.33 2.33 0 0 1-1.334-.36 13.285 13.285 0 0 0-6.959-1.948c-7.02 0-11.123 4.442-11.123 10.944 0 6.502 4.115 10.944 11.123 10.944a13.285 13.285 0 0 0 6.959-1.948 2.33 2.33 0 0 1 1.334-.36 2.477 2.477 0 0 1 2.3 2.432z"/>
    <g>
      <path stroke="#2AC2C5" stroke-width="5.95"
            d="M154.686 40.469v.32s-.002.534-.007.801c-.338 20.715-13.587 44.007-13.587 44.007a13.666 13.666 0 0 1-7.57 6.258c-6.305 1.494-11.121-11.067-14.2-16.325-1.678-2.868-4.08-5.377-7.231-3.092a13.403 13.403 0 0 0-4.08 5.019c-1.473 3.062-4.418 12.113-7.232 13.592-8.763 4.48-15.98-9.604-18.572-16.684a127.934 127.934 0 0 1-7.365-31.366c-.53-5.9-.206-11.949 2.298-17.37a26.546 26.546 0 0 1 7.026-9.022 18.518 18.518 0 0 1 8.248-4.152c2.93-.793 6-.88 8.97-.254.397.104.78.224 1.163.358 2.268.762 4.418 1.882 6.716 2.629 2.71.881 5.376 3.077 8.027 2.54 3.697-.763 7.585-4.482 11.415-4.482h.397"/>
      <path fill="#2AC2C5" fill-rule="nonzero"
            d="M151.268 27.4a27.442 27.442 0 0 0-9.277-10.165c0-.438-.007-6.3 0-6.296 6.829 3.507 12.223 9.332 15.246 16.452-.936 0-5.69.008-5.97.008z"/>
      <path stroke="#2AC2C5" stroke-linejoin="round" stroke-width="5.95"
            d="M166.174 21.222v12.68h-12.578M166.174 15.696V3h-12.578M135.554 21.222v12.68h12.563M135.554 15.696V3h12.563"/>
    </g>
  </g>
</svg>
